<svg width="232" height="64" viewBox="0 0 232 64" fill="none" xmlns="http://www.w3.org/2000/svg">
<path d="M207.212 3.13278L83.8494 3.13326L74.523 3.13326C73.2512 3.13327 68.1641 2.60262 64.3488 5.78732C60.5334 8.97203 59.6856 12.4221 59.6856 12.4221C59.6856 12.4221 49 44.3261 49 49.0388C49 53.7514 63.9248 54 63.9248 54C63.9248 54 176.271 53.5577 201.701 53.5577C206.117 53.458 209.149 51.0423 209.332 50.9038C210.585 49.9529 213.995 43.8268 213.995 43.8268C213.995 43.8268 229.726 9.4732 229.998 5.78732C230.269 2.10145 207.212 3.13278 207.212 3.13278Z" fill="#FC0000" stroke="#FF0000" stroke-width="4"/>
<g filter="url(#filter0_d_6_117)">
<mask id="path-2-outside-1_6_117" maskUnits="userSpaceOnUse" x="3" y="10" width="57" height="38" fill="black">
<rect fill="white" x="3" y="10" width="57" height="38"/>
<path d="M4.03409 46V11.0909H17.8068C20.4432 11.0909 22.6932 11.5625 24.5568 12.5057C26.4318 13.4375 27.858 14.7614 28.8352 16.4773C29.8239 18.1818 30.3182 20.1875 30.3182 22.4943C30.3182 24.8125 29.8182 26.8068 28.8182 28.4773C27.8182 30.1364 26.3693 31.4091 24.4716 32.2955C22.5852 33.1818 20.3011 33.625 17.6193 33.625H8.39773V27.6932H16.4261C17.8352 27.6932 19.0057 27.5 19.9375 27.1136C20.8693 26.7273 21.5625 26.1477 22.017 25.375C22.483 24.6023 22.7159 23.642 22.7159 22.4943C22.7159 21.3352 22.483 20.358 22.017 19.5625C21.5625 18.767 20.8636 18.1648 19.9205 17.7557C18.9886 17.3352 17.8125 17.125 16.392 17.125H11.4148V46H4.03409ZM22.8864 30.1136L31.5625 46H23.4148L14.9261 30.1136H22.8864ZM46.9077 46.5114C44.2145 46.5114 41.8963 45.9659 39.9531 44.875C38.0213 43.7727 36.5327 42.2159 35.4872 40.2045C34.4418 38.1818 33.919 35.7898 33.919 33.0284C33.919 30.3352 34.4418 27.9716 35.4872 25.9375C36.5327 23.9034 38.0043 22.3182 39.902 21.1818C41.8111 20.0455 44.0497 19.4773 46.6179 19.4773C48.3452 19.4773 49.9531 19.7557 51.4418 20.3125C52.9418 20.858 54.2486 21.6818 55.3622 22.7841C56.4872 23.8864 57.3622 25.2727 57.9872 26.9432C58.6122 28.6023 58.9247 30.5455 58.9247 32.7727V34.767H36.8168V30.267H52.0895C52.0895 29.2216 51.8622 28.2955 51.4077 27.4886C50.9531 26.6818 50.3224 26.0511 49.5156 25.5966C48.7202 25.1307 47.794 24.8977 46.7372 24.8977C45.6349 24.8977 44.6577 25.1534 43.8054 25.6648C42.9645 26.1648 42.3054 26.8409 41.8281 27.6932C41.3509 28.5341 41.1065 29.4716 41.0952 30.5057V34.7841C41.0952 36.0795 41.3338 37.1989 41.8111 38.142C42.2997 39.0852 42.9872 39.8125 43.8736 40.3239C44.7599 40.8352 45.8111 41.0909 47.027 41.0909C47.8338 41.0909 48.5724 40.9773 49.2429 40.75C49.9134 40.5227 50.4872 40.1818 50.9645 39.7273C51.4418 39.2727 51.8054 38.7159 52.0554 38.0568L58.7713 38.5C58.4304 40.1136 57.7315 41.5227 56.6747 42.7273C55.6293 43.9205 54.277 44.8523 52.6179 45.5227C50.9702 46.1818 49.0668 46.5114 46.9077 46.5114Z"/>
</mask>
<path d="M4.03409 46V11.0909H17.8068C20.4432 11.0909 22.6932 11.5625 24.5568 12.5057C26.4318 13.4375 27.858 14.7614 28.8352 16.4773C29.8239 18.1818 30.3182 20.1875 30.3182 22.4943C30.3182 24.8125 29.8182 26.8068 28.8182 28.4773C27.8182 30.1364 26.3693 31.4091 24.4716 32.2955C22.5852 33.1818 20.3011 33.625 17.6193 33.625H8.39773V27.6932H16.4261C17.8352 27.6932 19.0057 27.5 19.9375 27.1136C20.8693 26.7273 21.5625 26.1477 22.017 25.375C22.483 24.6023 22.7159 23.642 22.7159 22.4943C22.7159 21.3352 22.483 20.358 22.017 19.5625C21.5625 18.767 20.8636 18.1648 19.9205 17.7557C18.9886 17.3352 17.8125 17.125 16.392 17.125H11.4148V46H4.03409ZM22.8864 30.1136L31.5625 46H23.4148L14.9261 30.1136H22.8864ZM46.9077 46.5114C44.2145 46.5114 41.8963 45.9659 39.9531 44.875C38.0213 43.7727 36.5327 42.2159 35.4872 40.2045C34.4418 38.1818 33.919 35.7898 33.919 33.0284C33.919 30.3352 34.4418 27.9716 35.4872 25.9375C36.5327 23.9034 38.0043 22.3182 39.902 21.1818C41.8111 20.0455 44.0497 19.4773 46.6179 19.4773C48.3452 19.4773 49.9531 19.7557 51.4418 20.3125C52.9418 20.858 54.2486 21.6818 55.3622 22.7841C56.4872 23.8864 57.3622 25.2727 57.9872 26.9432C58.6122 28.6023 58.9247 30.5455 58.9247 32.7727V34.767H36.8168V30.267H52.0895C52.0895 29.2216 51.8622 28.2955 51.4077 27.4886C50.9531 26.6818 50.3224 26.0511 49.5156 25.5966C48.7202 25.1307 47.794 24.8977 46.7372 24.8977C45.6349 24.8977 44.6577 25.1534 43.8054 25.6648C42.9645 26.1648 42.3054 26.8409 41.8281 27.6932C41.3509 28.5341 41.1065 29.4716 41.0952 30.5057V34.7841C41.0952 36.0795 41.3338 37.1989 41.8111 38.142C42.2997 39.0852 42.9872 39.8125 43.8736 40.3239C44.7599 40.8352 45.8111 41.0909 47.027 41.0909C47.8338 41.0909 48.5724 40.9773 49.2429 40.75C49.9134 40.5227 50.4872 40.1818 50.9645 39.7273C51.4418 39.2727 51.8054 38.7159 52.0554 38.0568L58.7713 38.5C58.4304 40.1136 57.7315 41.5227 56.6747 42.7273C55.6293 43.9205 54.277 44.8523 52.6179 45.5227C50.9702 46.1818 49.0668 46.5114 46.9077 46.5114Z" fill="#1F41F8"/>
<path d="M4.03409 46H3.03409V47H4.03409V46ZM4.03409 11.0909V10.0909H3.03409V11.0909H4.03409ZM24.5568 12.5057L24.1052 13.3979L24.1118 13.4012L24.5568 12.5057ZM28.8352 16.4773L27.9662 16.9722L27.9702 16.979L28.8352 16.4773ZM28.8182 28.4773L29.6746 28.9935L29.6762 28.9909L28.8182 28.4773ZM24.4716 32.2955L24.0484 31.3894L24.0463 31.3904L24.4716 32.2955ZM8.39773 33.625H7.39773V34.625H8.39773V33.625ZM8.39773 27.6932V26.6932H7.39773V27.6932H8.39773ZM19.9375 27.1136L20.3205 28.0374L20.3205 28.0374L19.9375 27.1136ZM22.017 25.375L21.1606 24.8586L21.1551 24.868L22.017 25.375ZM22.017 19.5625L21.1488 20.0587L21.1542 20.0679L22.017 19.5625ZM19.9205 17.7557L19.5092 18.6672L19.5158 18.6702L19.5225 18.6731L19.9205 17.7557ZM11.4148 17.125V16.125H10.4148V17.125H11.4148ZM11.4148 46V47H12.4148V46H11.4148ZM22.8864 30.1136L23.764 29.6343L23.4796 29.1136H22.8864V30.1136ZM31.5625 46V47H33.2481L32.4401 45.5207L31.5625 46ZM23.4148 46L22.5328 46.4713L22.8153 47H23.4148V46ZM14.9261 30.1136V29.1136H13.258L14.0442 30.5849L14.9261 30.1136ZM5.03409 46V11.0909H3.03409V46H5.03409ZM4.03409 12.0909H17.8068V10.0909H4.03409V12.0909ZM17.8068 12.0909C20.3264 12.0909 22.4135 12.5417 24.1053 13.3979L25.0084 11.6134C22.9729 10.5833 20.56 10.0909 17.8068 10.0909V12.0909ZM24.1118 13.4012C25.8201 14.2502 27.0934 15.4396 27.9663 16.9722L29.7042 15.9824C28.6225 14.0831 27.0435 12.6248 25.0019 11.6102L24.1118 13.4012ZM27.9702 16.979C28.8564 18.5068 29.3182 20.3334 29.3182 22.4943H31.3182C31.3182 20.0416 30.7914 17.8568 29.7003 15.9756L27.9702 16.979ZM29.3182 22.4943C29.3182 24.6663 28.8509 26.4757 27.9602 27.9636L29.6762 28.9909C30.7855 27.1379 31.3182 24.9587 31.3182 22.4943H29.3182ZM27.9617 27.9611C27.0726 29.4361 25.7815 30.5799 24.0484 31.3894L24.8948 33.2015C26.9571 32.2382 28.5637 30.8366 29.6746 28.9935L27.9617 27.9611ZM24.0463 31.3904C22.3254 32.199 20.1947 32.625 17.6193 32.625V34.625C20.4075 34.625 22.845 34.1646 24.8969 33.2005L24.0463 31.3904ZM17.6193 32.625H8.39773V34.625H17.6193V32.625ZM9.39773 33.625V27.6932H7.39773V33.625H9.39773ZM8.39773 28.6932H16.4261V26.6932H8.39773V28.6932ZM16.4261 28.6932C17.9182 28.6932 19.2293 28.4898 20.3205 28.0374L19.5545 26.1899C18.782 26.5102 17.7523 26.6932 16.4261 26.6932V28.6932ZM20.3205 28.0374C21.4266 27.5787 22.3007 26.8652 22.879 25.882L21.1551 24.868C20.8243 25.4303 20.312 25.8758 19.5545 26.1899L20.3205 28.0374ZM22.8734 25.8913C23.4557 24.9257 23.7159 23.7752 23.7159 22.4943H21.7159C21.7159 23.5089 21.5103 24.2788 21.1607 24.8587L22.8734 25.8913ZM23.7159 22.4943C23.7159 21.2027 23.456 20.0406 22.8799 19.0571L21.1542 20.0679C21.5099 20.6753 21.7159 21.4677 21.7159 22.4943H23.7159ZM22.8853 19.0664C22.3106 18.0607 21.4343 17.3223 20.3184 16.8383L19.5225 18.6731C20.293 19.0073 20.8144 19.4734 21.1488 20.0586L22.8853 19.0664ZM20.3317 16.8442C19.2306 16.3473 17.9026 16.125 16.392 16.125V18.125C17.7224 18.125 18.7466 18.3231 19.5092 18.6672L20.3317 16.8442ZM16.392 16.125H11.4148V18.125H16.392V16.125ZM10.4148 17.125V46H12.4148V17.125H10.4148ZM11.4148 45H4.03409V47H11.4148V45ZM22.0087 30.593L30.6849 46.4793L32.4401 45.5207L23.764 29.6343L22.0087 30.593ZM31.5625 45H23.4148V47H31.5625V45ZM24.2968 45.5287L15.8081 29.6424L14.0442 30.5849L22.5328 46.4713L24.2968 45.5287ZM14.9261 31.1136H22.8864V29.1136H14.9261V31.1136ZM39.9531 44.875L39.4575 45.7436L39.4636 45.747L39.9531 44.875ZM35.4872 40.2045L34.5989 40.6637L34.5999 40.6657L35.4872 40.2045ZM35.4872 25.9375L34.5978 25.4804L34.5978 25.4804L35.4872 25.9375ZM39.902 21.1818L39.3905 20.3225L39.3882 20.3239L39.902 21.1818ZM51.4418 20.3125L51.0914 21.2492L51.1 21.2523L51.4418 20.3125ZM55.3622 22.7841L54.6587 23.4948L54.6624 23.4984L55.3622 22.7841ZM57.9872 26.9432L57.0506 27.2936L57.0514 27.2957L57.9872 26.9432ZM58.9247 34.767V35.767H59.9247V34.767H58.9247ZM36.8168 34.767H35.8168V35.767H36.8168V34.767ZM36.8168 30.267V29.267H35.8168V30.267H36.8168ZM52.0895 30.267V31.267H53.0895V30.267H52.0895ZM51.4077 27.4886L50.5364 27.9795L50.5364 27.9795L51.4077 27.4886ZM49.5156 25.5966L49.0102 26.4595L49.0175 26.4637L49.0248 26.4678L49.5156 25.5966ZM43.8054 25.6648L44.3165 26.5243L44.3199 26.5223L43.8054 25.6648ZM41.8281 27.6932L42.6978 28.1868L42.7006 28.1818L41.8281 27.6932ZM41.0952 30.5057L40.0952 30.4947V30.5057H41.0952ZM41.8111 38.142L40.9188 38.5936L40.9232 38.6021L41.8111 38.142ZM49.2429 40.75L48.9219 39.8029L48.9219 39.8029L49.2429 40.75ZM50.9645 39.7273L50.2748 39.0031L50.2748 39.0031L50.9645 39.7273ZM52.0554 38.0568L52.1212 37.059L51.3828 37.0103L51.1204 37.7022L52.0554 38.0568ZM58.7713 38.5L59.7497 38.7067L59.9881 37.5781L58.8372 37.5022L58.7713 38.5ZM56.6747 42.7273L55.923 42.0678L55.9226 42.0683L56.6747 42.7273ZM52.6179 45.5227L52.9893 46.4512L52.9926 46.4499L52.6179 45.5227ZM46.9077 45.5114C44.3503 45.5114 42.2081 44.9941 40.4427 44.003L39.4636 45.747C41.5845 46.9377 44.0787 47.5114 46.9077 47.5114V45.5114ZM40.4487 44.0064C38.6873 43.0014 37.3331 41.5876 36.3745 39.7434L34.5999 40.6657C35.7323 42.8443 37.3553 44.5441 39.4575 45.7436L40.4487 44.0064ZM36.3756 39.7454C35.4175 37.8917 34.919 35.6636 34.919 33.0284H32.919C32.919 35.9159 33.466 38.4719 34.5989 40.6637L36.3756 39.7454ZM34.919 33.0284C34.919 30.4661 35.4157 28.2642 36.3766 26.3946L34.5978 25.4804C33.4678 27.679 32.919 30.2044 32.919 33.0284H34.919ZM36.3766 26.3946C37.3398 24.5207 38.6838 23.0768 40.4157 22.0398L39.3882 20.3239C37.3247 21.5595 35.7256 23.2862 34.5978 25.4804L36.3766 26.3946ZM40.4135 22.0411C42.1451 21.0104 44.2013 20.4773 46.6179 20.4773V18.4773C43.8982 18.4773 41.4771 19.0805 39.3905 20.3225L40.4135 22.0411ZM46.6179 20.4773C48.2359 20.4773 49.7242 20.7377 51.0914 21.2491L51.7921 19.3759C50.1821 18.7737 48.4544 18.4773 46.6179 18.4773V20.4773ZM51.1 21.2523C52.4669 21.7493 53.6497 22.4961 54.6587 23.4948L56.0657 22.0734C54.8475 20.8676 53.4166 19.9666 51.7835 19.3727L51.1 21.2523ZM54.6624 23.4984C55.6697 24.4854 56.4701 25.7421 57.0506 27.2936L58.9238 26.5928C58.2543 24.8034 57.3047 23.2874 56.0621 22.0698L54.6624 23.4984ZM57.0514 27.2957C57.6246 28.8174 57.9247 30.6363 57.9247 32.7727H59.9247C59.9247 30.4547 59.5998 28.3872 58.923 26.5907L57.0514 27.2957ZM57.9247 32.7727V34.767H59.9247V32.7727H57.9247ZM58.9247 33.767H36.8168V35.767H58.9247V33.767ZM37.8168 34.767V30.267H35.8168V34.767H37.8168ZM36.8168 31.267H52.0895V29.267H36.8168V31.267ZM53.0895 30.267C53.0895 29.0722 52.8283 27.9729 52.2789 26.9978L50.5364 27.9795C50.8961 28.618 51.0895 29.371 51.0895 30.267H53.0895ZM52.2789 26.9978C51.7347 26.0318 50.9725 25.2696 50.0065 24.7253L49.0248 26.4678C49.6724 26.8327 50.1716 27.3318 50.5364 27.9795L52.2789 26.9978ZM50.021 24.7337C49.051 24.1655 47.9453 23.8977 46.7372 23.8977V25.8977C47.6428 25.8977 48.3894 26.0958 49.0102 26.4595L50.021 24.7337ZM46.7372 23.8977C45.474 23.8977 44.3151 24.1927 43.2909 24.8073L44.3199 26.5223C45.0002 26.1141 45.7959 25.8977 46.7372 25.8977V23.8977ZM43.2943 24.8052C42.3027 25.3948 41.5188 26.1988 40.9556 27.2046L42.7006 28.1818C43.092 27.483 43.6263 26.9347 44.3165 26.5243L43.2943 24.8052ZM40.9584 27.1996C40.3918 28.1979 40.1083 29.3034 40.0952 30.4947L42.0951 30.5167C42.1047 29.6397 42.3099 28.8702 42.6978 28.1868L40.9584 27.1996ZM40.0952 30.5057V34.7841H42.0952V30.5057H40.0952ZM40.0952 34.7841C40.0952 36.2016 40.3565 37.4823 40.9188 38.5936L42.7033 37.6905C42.3111 36.9154 42.0952 35.9575 42.0952 34.7841H40.0952ZM40.9232 38.6021C41.4962 39.7081 42.3154 40.5794 43.3739 41.19L44.3733 39.4577C43.659 39.0456 43.1032 38.4623 42.699 37.682L40.9232 38.6021ZM43.3739 41.19C44.4385 41.8043 45.6688 42.0909 47.027 42.0909V40.0909C45.9534 40.0909 45.0814 39.8662 44.3733 39.4577L43.3739 41.19ZM47.027 42.0909C47.928 42.0909 48.7768 41.9639 49.5639 41.6971L48.9219 39.8029C48.3681 39.9906 47.7396 40.0909 47.027 40.0909V42.0909ZM49.5639 41.6971C50.3616 41.4267 51.064 41.0134 51.6541 40.4514L50.2748 39.0031C49.9104 39.3502 49.4651 39.6188 48.9219 39.8029L49.5639 41.6971ZM51.6541 40.4514C52.2473 39.8865 52.6911 39.2006 52.9904 38.4115L51.1204 37.7022C50.9197 38.2312 50.6363 38.6589 50.2748 39.0031L51.6541 40.4514ZM51.9896 39.0546L58.7055 39.4978L58.8372 37.5022L52.1212 37.059L51.9896 39.0546ZM57.7929 38.2933C57.4864 39.7442 56.8633 40.9961 55.923 42.0678L57.4264 43.3868C58.5998 42.0494 59.3744 40.4831 59.7497 38.7067L57.7929 38.2933ZM55.9226 42.0683C54.9928 43.1295 53.776 43.9762 52.2432 44.5956L52.9926 46.4499C54.778 45.7284 56.2657 44.7115 57.4268 43.3863L55.9226 42.0683ZM52.2465 44.5943C50.7395 45.1971 48.9663 45.5114 46.9077 45.5114V47.5114C49.1672 47.5114 51.2009 47.1666 52.9893 46.4512L52.2465 44.5943Z" fill="#675050" mask="url(#path-2-outside-1_6_117)"/>
</g>
<g filter="url(#filter1_d_6_117)">
<path d="M66.8977 55.8182V19.8182H74.0568V24.2159H74.3807C74.6989 23.5114 75.1591 22.7955 75.7614 22.0682C76.375 21.3295 77.1705 20.7159 78.1477 20.2273C79.1364 19.7273 80.3636 19.4773 81.8295 19.4773C83.7386 19.4773 85.5 19.9773 87.1136 20.9773C88.7273 21.9659 90.017 23.4602 90.983 25.4602C91.9489 27.4489 92.4318 29.9432 92.4318 32.9432C92.4318 35.8636 91.9602 38.3295 91.017 40.3409C90.0852 42.3409 88.8125 43.858 87.1989 44.892C85.5966 45.9148 83.8011 46.4261 81.8125 46.4261C80.4034 46.4261 79.2045 46.1932 78.2159 45.7273C77.2386 45.2614 76.4375 44.6761 75.8125 43.9716C75.1875 43.2557 74.7102 42.5341 74.3807 41.8068H74.1591V55.8182H66.8977ZM74.0057 32.9091C74.0057 34.4659 74.2216 35.8239 74.6534 36.983C75.0852 38.142 75.7102 39.0455 76.5284 39.6932C77.3466 40.3295 78.3409 40.6477 79.5114 40.6477C80.6932 40.6477 81.6932 40.3239 82.5114 39.6761C83.3295 39.017 83.9489 38.108 84.3693 36.9489C84.8011 35.7784 85.017 34.4318 85.017 32.9091C85.017 31.3977 84.8068 30.0682 84.3864 28.9205C83.9659 27.7727 83.3466 26.875 82.5284 26.2273C81.7102 25.5795 80.7045 25.2557 79.5114 25.2557C78.3295 25.2557 77.3295 25.5682 76.5114 26.1932C75.7045 26.8182 75.0852 27.7045 74.6534 28.8523C74.2216 30 74.0057 31.3523 74.0057 32.9091ZM114.062 34.8523V19.8182H121.324V46H114.352V41.2443H114.08C113.489 42.7784 112.506 44.0114 111.131 44.9432C109.767 45.875 108.102 46.3409 106.136 46.3409C104.386 46.3409 102.847 45.9432 101.517 45.1477C100.188 44.3523 99.1477 43.2216 98.3977 41.7557C97.6591 40.2898 97.2841 38.5341 97.2727 36.4886V19.8182H104.534V35.1932C104.545 36.7386 104.96 37.9602 105.778 38.858C106.597 39.7557 107.693 40.2045 109.068 40.2045C109.943 40.2045 110.761 40.0057 111.523 39.608C112.284 39.1989 112.898 38.5966 113.364 37.8011C113.841 37.0057 114.074 36.0227 114.062 34.8523ZM127.268 46V11.0909H134.53V24.2159H134.751C135.07 23.5114 135.53 22.7955 136.132 22.0682C136.746 21.3295 137.541 20.7159 138.518 20.2273C139.507 19.7273 140.734 19.4773 142.2 19.4773C144.109 19.4773 145.871 19.9773 147.484 20.9773C149.098 21.9659 150.388 23.4602 151.354 25.4602C152.32 27.4489 152.803 29.9432 152.803 32.9432C152.803 35.8636 152.331 38.3295 151.388 40.3409C150.456 42.3409 149.183 43.858 147.57 44.892C145.967 45.9148 144.172 46.4261 142.183 46.4261C140.774 46.4261 139.575 46.1932 138.587 45.7273C137.609 45.2614 136.808 44.6761 136.183 43.9716C135.558 43.2557 135.081 42.5341 134.751 41.8068H134.428V46H127.268ZM134.376 32.9091C134.376 34.4659 134.592 35.8239 135.024 36.983C135.456 38.142 136.081 39.0455 136.899 39.6932C137.717 40.3295 138.712 40.6477 139.882 40.6477C141.064 40.6477 142.064 40.3239 142.882 39.6761C143.7 39.017 144.32 38.108 144.74 36.9489C145.172 35.7784 145.388 34.4318 145.388 32.9091C145.388 31.3977 145.178 30.0682 144.757 28.9205C144.337 27.7727 143.717 26.875 142.899 26.2273C142.081 25.5795 141.075 25.2557 139.882 25.2557C138.7 25.2557 137.7 25.5682 136.882 26.1932C136.075 26.8182 135.456 27.7045 135.024 28.8523C134.592 30 134.376 31.3523 134.376 32.9091ZM164.909 11.0909V46H157.648V11.0909H164.909ZM187.903 19.8182L192.71 28.9716L197.636 19.8182H205.085L197.5 32.9091L205.29 46H197.875L192.71 36.9489L187.631 46H180.131L187.903 32.9091L180.403 19.8182H187.903Z" fill="white"/>
</g>
<g filter="url(#filter2_d_6_117)">
<rect x="171" y="22" width="7" height="24" fill="white"/>
<g filter="url(#filter3_d_6_117)">
<path d="M174.5 9L175.735 12.8004H179.731L176.498 15.1492L177.733 18.9496L174.5 16.6008L171.267 18.9496L172.502 15.1492L169.269 12.8004H173.265L174.5 9Z" fill="white"/>
</g>
</g>
<defs>
<filter id="filter0_d_6_117" x="0.0340919" y="11.0909" width="62.8906" height="43.4205" filterUnits="userSpaceOnUse" color-interpolation-filters="sRGB">
<feFlood flood-opacity="0" result="BackgroundImageFix"/>
<feColorMatrix in="SourceAlpha" type="matrix" values="0 0 0 0 0 0 0 0 0 0 0 0 0 0 0 0 0 0 127 0" result="hardAlpha"/>
<feOffset dy="4"/>
<feGaussianBlur stdDeviation="2"/>
<feComposite in2="hardAlpha" operator="out"/>
<feColorMatrix type="matrix" values="0 0 0 0 0 0 0 0 0 0 0 0 0 0 0 0 0 0 0.33 0"/>
<feBlend mode="normal" in2="BackgroundImageFix" result="effect1_dropShadow_6_117"/>
<feBlend mode="normal" in="SourceGraphic" in2="effect1_dropShadow_6_117" result="shape"/>
</filter>
<filter id="filter1_d_6_117" x="62.8977" y="11.0909" width="146.392" height="52.7273" filterUnits="userSpaceOnUse" color-interpolation-filters="sRGB">
<feFlood flood-opacity="0" result="BackgroundImageFix"/>
<feColorMatrix in="SourceAlpha" type="matrix" values="0 0 0 0 0 0 0 0 0 0 0 0 0 0 0 0 0 0 127 0" result="hardAlpha"/>
<feOffset dy="4"/>
<feGaussianBlur stdDeviation="2"/>
<feComposite in2="hardAlpha" operator="out"/>
<feColorMatrix type="matrix" values="0 0 0 0 0 0 0 0 0 0 0 0 0 0 0 0 0 0 0.25 0"/>
<feBlend mode="normal" in2="BackgroundImageFix" result="effect1_dropShadow_6_117"/>
<feBlend mode="normal" in="SourceGraphic" in2="effect1_dropShadow_6_117" result="shape"/>
</filter>
<filter id="filter2_d_6_117" x="165.269" y="9" width="18.4616" height="45" filterUnits="userSpaceOnUse" color-interpolation-filters="sRGB">
<feFlood flood-opacity="0" result="BackgroundImageFix"/>
<feColorMatrix in="SourceAlpha" type="matrix" values="0 0 0 0 0 0 0 0 0 0 0 0 0 0 0 0 0 0 127 0" result="hardAlpha"/>
<feOffset dy="4"/>
<feGaussianBlur stdDeviation="2"/>
<feComposite in2="hardAlpha" operator="out"/>
<feColorMatrix type="matrix" values="0 0 0 0 0 0 0 0 0 0 0 0 0 0 0 0 0 0 0.25 0"/>
<feBlend mode="normal" in2="BackgroundImageFix" result="effect1_dropShadow_6_117"/>
<feBlend mode="normal" in="SourceGraphic" in2="effect1_dropShadow_6_117" result="shape"/>
</filter>
<filter id="filter3_d_6_117" x="165.269" y="9" width="18.4616" height="17.9496" filterUnits="userSpaceOnUse" color-interpolation-filters="sRGB">
<feFlood flood-opacity="0" result="BackgroundImageFix"/>
<feColorMatrix in="SourceAlpha" type="matrix" values="0 0 0 0 0 0 0 0 0 0 0 0 0 0 0 0 0 0 127 0" result="hardAlpha"/>
<feOffset dy="4"/>
<feGaussianBlur stdDeviation="2"/>
<feComposite in2="hardAlpha" operator="out"/>
<feColorMatrix type="matrix" values="0 0 0 0 0 0 0 0 0 0 0 0 0 0 0 0 0 0 0.25 0"/>
<feBlend mode="normal" in2="BackgroundImageFix" result="effect1_dropShadow_6_117"/>
<feBlend mode="normal" in="SourceGraphic" in2="effect1_dropShadow_6_117" result="shape"/>
</filter>
</defs>
</svg>
